<svg xmlns="http://www.w3.org/2000/svg" viewBox="-38 0 76 65">
  <!-- Component: polo shirt torso | Tier: 1 | Origin: neck top center at (0,0) -->
  <!-- Requires crosshatch-light pattern in parent <defs> -->
  <g data-component="torso-polo" data-tier="1" data-attach-neck="0,0" data-attach-left-shoulder="-32,5" data-attach-right-shoulder="34,5" data-attach-left-hip="-9,62" data-attach-right-hip="18,60">
    <!-- Bean body — 3/4 view, slightly narrower -->
    <path d="M-32,5 C-36,7 -37,11 -34,17 C-30,29 -26,39 -22,47 C-19,53 -14,59 -9,62 C-2,64 11,63 18,60 C24,55 28,47 31,39 C34,31 36,21 37,14 C38,10 37,7 34,5 C28,2 14,0 0,0 C-14,0 -28,2 -32,5 Z"
      stroke="#1A1A1A" stroke-width="3" fill="url(#crosshatch-light)" stroke-linecap="round"/>
    <!-- Polo collar -->
    <path d="M-12,0 C-8,4 -2,6 6,6 C12,5 16,3 19,0"
      stroke="#1A1A1A" stroke-width="2.5" fill="none" stroke-linecap="round"/>
    <!-- Button placket -->
    <path d="M4,6 C4,12 4,19 4,25" stroke="#1A1A1A" stroke-width="1.5" fill="none" stroke-linecap="round" opacity="0.5"/>
  </g>
</svg>
